<svg width="130" height="24" viewBox="0 0 130 24" fill="none" xmlns="http://www.w3.org/2000/svg">
<path d="M20.5562 24.0049H11.3073V19.148C11.3073 18.5805 10.8456 18.1184 10.2776 18.1184C9.7097 18.1184 9.24802 18.5801 9.24802 19.148V24.0049H0V17.625C0 14.5136 1.37599 12.718 2.83247 11.2592C1.07845 9.41931 0 6.92779 0 4.18892V0.00488281H9.24847V5.12991C9.24847 7.86199 8.23513 9.59611 7.02057 10.9667C7.9896 11.4288 9.07303 11.6884 10.2152 11.6888C10.288 11.6888 10.3622 11.6884 10.4368 11.6875C11.5428 11.6748 12.5924 11.417 13.5352 10.9658C12.3206 9.59521 11.3077 7.86109 11.3077 5.12946V0.00488281H20.5562V4.18847C20.5562 6.91829 19.4746 9.41162 17.7192 11.2547C19.1775 12.7144 20.5562 14.5104 20.5562 17.625V24.0049ZM14.0506 21.2619H17.8132V17.625C17.8132 15.4121 16.8582 14.2409 15.5655 12.9825C14.0687 13.8828 12.3269 14.4096 10.4689 14.4304C10.3844 14.4313 10.2993 14.4317 10.2148 14.4317C8.30658 14.4304 6.51865 13.9022 4.98892 12.9843C3.69704 14.2418 2.74339 15.413 2.74339 17.6246V21.2615H6.50599V19.1475C6.50599 17.0675 8.19806 15.375 10.2785 15.375C12.3586 15.375 14.0511 17.0671 14.0511 19.1475V21.2619H14.0506ZM2.74293 2.74782V4.18847C2.74293 6.18214 3.5225 7.99674 4.79267 9.34153C5.80737 8.25087 6.50554 7.08831 6.50554 5.12946V2.74737H2.74293V2.74782ZM14.0506 2.74782V5.12991C14.0506 7.08695 14.7475 8.24951 15.7612 9.33927C17.0319 7.99222 17.8132 6.17581 17.8132 4.18892V2.74827H14.0506V2.74782Z" fill="#4F46E5"/>
<path d="M43.6197 1.54248H40.501C40.1922 1.54248 39.9417 1.79299 39.9417 2.10183V10.1344H30.794V2.10183C30.794 1.79299 30.5435 1.54248 30.2347 1.54248H27.116C26.8067 1.54248 26.5566 1.79299 26.5566 2.10183V21.7772C26.5566 22.0295 26.761 22.2339 27.0133 22.2339H30.3373C30.5896 22.2339 30.7945 22.0295 30.7945 21.7772V13.9047H39.9421V21.7622C39.9421 22.0227 40.1533 22.2339 40.4137 22.2339H43.7079C43.9688 22.2339 44.18 22.0227 44.18 21.7622V2.10183C44.1791 1.79299 43.9286 1.54248 43.6197 1.54248Z" fill="black"/>
<path d="M51.6287 5.11788V1.97431C51.6287 1.73556 51.4352 1.54248 51.1969 1.54248H47.9416C47.7028 1.54248 47.5098 1.73601 47.5098 1.97431V6.8321V6.9551V21.8545C47.5098 22.0638 47.6798 22.2339 47.8891 22.2339H51.2511C51.4605 22.2339 51.6305 22.0638 51.6305 21.8545V7.21148C51.6305 7.00212 51.4605 6.8321 51.2511 6.8321H48.4657C48.3354 6.8321 48.3024 6.65168 48.4236 6.60556L51.385 5.47239C51.5315 5.41587 51.6287 5.27524 51.6287 5.11788Z" fill="black"/>
<path d="M93.4509 5.11788V1.97431C93.4509 1.73556 93.2574 1.54248 93.0191 1.54248H89.7639C89.5251 1.54248 89.332 1.73601 89.332 1.97431V6.8321V6.9551V21.8545C89.332 22.0638 89.502 22.2339 89.7114 22.2339H93.0734C93.2827 22.2339 93.4528 22.0638 93.4528 21.8545V7.21148C93.4528 7.00212 93.2827 6.8321 93.0734 6.8321H90.2879C90.1577 6.8321 90.1247 6.65168 90.2459 6.60556L93.2072 5.47239C93.3537 5.41587 93.4509 5.27524 93.4509 5.11788Z" fill="black"/>
<path d="M63.3225 6.54818C63.2077 6.54366 63.0896 6.54004 63.0001 6.54004C62.0067 6.54004 61.1539 6.72543 60.443 7.09532C59.8425 7.40823 59.2741 7.85227 58.736 8.42835C58.6185 8.55451 58.4082 8.49166 58.3879 8.32028L58.2291 7.0085C58.2169 6.90812 58.1315 6.83215 58.0302 6.83215H54.6085C54.4982 6.83215 54.4082 6.92168 54.4082 7.03247V21.8477C54.4082 22.0612 54.5814 22.2339 54.7948 22.2339H58.1428C58.3562 22.2339 58.5289 22.0612 58.5289 21.8477V15.3074C58.5289 14.5672 58.5823 13.9047 58.6895 13.3201C58.7962 12.7354 59.0743 12.1901 59.5224 11.6832C59.8149 11.3716 60.1509 11.1329 60.5307 10.9669C60.9106 10.8019 61.3053 10.6798 61.7146 10.602C62.1238 10.5242 62.557 10.4804 63.015 10.4704C63.3365 10.4636 63.6562 10.4591 63.9737 10.4573C64.197 10.4559 64.3738 10.276 64.3738 10.0526L63.8045 6.96735C63.7611 6.73267 63.5613 6.55813 63.3225 6.54818Z" fill="black"/>
<path d="M78.2688 9.24279C77.6747 8.3954 76.8707 7.72798 75.8578 7.24098C74.8445 6.75443 73.6462 6.51025 72.263 6.51025C71.0746 6.51025 70.0174 6.70514 69.0923 7.09447C68.1662 7.48471 67.392 8.03456 66.7685 8.74584C66.1449 9.45757 65.6629 10.3 65.322 11.274C64.981 12.2484 64.8105 13.3102 64.8105 14.4596C64.8105 16.9927 65.4486 18.9602 66.7246 20.3628C68.0007 21.7655 69.8854 22.4673 72.3796 22.4673C73.1981 22.4673 73.9772 22.3841 74.7178 22.219C75.4581 22.0536 76.135 21.7859 76.7491 21.4155C77.3627 21.0456 77.889 20.5677 78.3272 19.9835C78.669 19.5272 78.943 19.0063 79.1483 18.4198C79.2356 18.1711 79.0597 17.9084 78.7961 17.9084H75.2537C75.0823 17.9084 74.9281 17.997 74.8228 18.1322C74.5777 18.4456 74.2847 18.678 73.9428 18.829C73.5236 19.0144 73.0222 19.1067 72.4379 19.1067C71.3079 19.1067 70.4601 18.7902 69.8958 18.1571C69.3306 17.524 69.0086 16.7495 68.9313 15.8333H78.9783C79.2501 15.8333 79.4875 15.6321 79.5218 15.3626C79.6647 14.2516 79.6462 13.2007 79.4671 12.2096C79.2632 11.0796 78.8635 10.0906 78.2688 9.24279ZM68.9607 12.9982C69.0579 12.1214 69.3939 11.4155 69.9695 10.8792C70.5438 10.3439 71.3477 10.0658 72.3801 10.0463C72.8087 10.0463 73.2229 10.1046 73.6227 10.2218C74.0215 10.3389 74.3674 10.5193 74.66 10.7626C74.9525 11.0063 75.1859 11.3179 75.3618 11.6977C75.5372 12.0775 75.6245 12.5112 75.6245 12.9982H68.9607Z" fill="black"/>
<path d="M109.468 8.38107C109.001 7.79685 108.387 7.33427 107.627 6.99287C106.867 6.65238 105.991 6.49141 104.997 6.51085C103.384 6.52803 101.998 7.11903 100.839 8.28431C100.653 8.47106 100.334 8.36072 100.307 8.09846L100.204 7.11315C100.187 6.95353 100.053 6.83235 99.8916 6.83235H96.2285V22.2341H100.349V14.6357C100.349 14.1098 100.393 13.5889 100.481 13.072C100.569 12.5561 100.73 12.0885 100.963 11.6693C101.197 11.2506 101.543 10.9047 102.001 10.632C102.459 10.3594 103.018 10.2133 103.681 10.1939C104.207 10.1939 104.679 10.2816 105.099 10.457C105.517 10.6325 105.854 10.9006 106.107 11.2606C106.36 11.6214 106.541 12.0496 106.648 12.5466C106.754 13.0431 106.808 13.5649 106.808 14.1102V22.235H110.958V13.7878C110.958 12.6773 110.851 11.6689 110.637 10.7632C110.423 9.85745 110.033 9.06342 109.468 8.38107Z" fill="black"/>
<path d="M122.284 18.2588C121.826 18.6292 121.207 18.8141 120.428 18.8141C119.785 18.8141 119.234 18.7119 118.776 18.5071C118.318 18.3022 117.953 18.0101 117.681 17.6303C117.408 17.2505 117.203 16.8024 117.067 16.286C116.93 15.77 116.863 15.2003 116.863 14.5763C116.863 13.9916 116.921 13.4368 117.038 12.9104C117.154 12.3845 117.349 11.917 117.622 11.5078C117.895 11.0985 118.265 10.777 118.733 10.5433C119.201 10.3095 119.756 10.1928 120.399 10.1928C121.159 10.1928 121.777 10.3782 122.255 10.7481C122.731 11.1184 123.019 11.5372 123.117 12.0047H127.442C127.305 11.0502 127.037 10.2272 126.638 9.53535C126.239 8.84396 125.732 8.27421 125.118 7.82565C124.505 7.37754 123.803 7.04654 123.014 6.83176C122.226 6.61742 121.382 6.51025 120.487 6.51025C119.259 6.51025 118.168 6.70017 117.213 7.08C116.259 7.46029 115.455 8.00064 114.802 8.70198C114.149 9.40331 113.648 10.2512 113.297 11.2446C112.947 12.2385 112.771 13.3296 112.771 14.5179C112.771 15.7452 112.932 16.8512 113.254 17.8351C113.575 18.8191 114.048 19.657 114.672 20.3484C115.295 21.0402 116.079 21.5661 117.024 21.9265C117.969 22.2869 119.084 22.4673 120.37 22.4673C121.227 22.4673 122.055 22.3696 122.854 22.1752C123.653 21.9807 124.369 21.6592 125.002 21.2107C125.635 20.7626 126.166 20.1978 126.595 19.5155C127.023 18.8336 127.306 17.9957 127.443 17.0022H123.117C123.019 17.4698 122.741 17.889 122.284 18.2588Z" fill="black"/>
<path d="M84.1477 18.3975H81.2529C80.9146 18.3975 80.6406 18.6715 80.6406 19.0097V21.622C80.6406 21.9602 80.9146 22.2342 81.2529 22.2342H84.1477C84.486 22.2342 84.76 21.9602 84.76 21.622V19.0093C84.76 18.6715 84.486 18.3975 84.1477 18.3975Z" fill="black"/>
</svg>
